<svg xmlns="http://www.w3.org/2000/svg" version="1.1" xmlns:xlink="http://www.w3.org/1999/xlink" xmlns:svgjs="http://svgjs.dev/svgjs" width="1000" height="1000" viewBox="0 0 1000 1000"><rect width="1000" height="1000" fill="#ffffff"></rect><g transform="matrix(0.7,0,0,0.7,149.57575757575756,332.5058518469433)"><svg viewBox="0 0 396 190" data-background-color="#ffffff" preserveAspectRatio="xMidYMid meet" height="479" width="1000" xmlns="http://www.w3.org/2000/svg" xmlns:xlink="http://www.w3.org/1999/xlink"><g id="tight-bounds" transform="matrix(1,0,0,1,0.2400000000000091,-0.08831449722404727)"><svg viewBox="0 0 395.52 176.0196572434166" height="176.0196572434166" width="395.52"><g><svg viewBox="0 0 395.52 176.0196572434166" height="176.0196572434166" width="395.52"><g><svg viewBox="0 0 395.52 176.0196572434166" height="176.0196572434166" width="395.52"><g id="textblocktransform"><svg viewBox="0 0 395.52 176.0196572434166" height="176.0196572434166" width="395.52" id="textblock"><g><rect width="395.52" height="135.84258122002478" fill="none" stroke-width="8.962371322224001" stroke="#000000" data-fill-palette-color="none" data-stroke-palette-color="tertiary"></rect><rect width="395.52" height="54.33404777442332" y="135.84258122002478" fill="#000000" data-fill-palette-color="tertiary"></rect></g><g><svg viewBox="0 0 395.52 134.84258122002478" height="134.84258122002478" width="395.52"><g transform="matrix(1,0,0,1,23.461705032,23.461705032)"><svg width="348.596589936" viewBox="1.6620689655172414 -36.080434022211996 182.92793103448275 46.14301223887" height="87.91917115602479" data-palette-color="#f5ba41"><path d="M17.15-0.8L17.15-0.8Q15.35-0.1 13.08 0 10.8 0.1 8.85-0.53 6.9-1.15 5.4-2.45L5.4-2.45Q2.8-4.6 2.05-7.8 1.3-11 2-13.55 2.7-16.1 4.13-18.53 5.55-20.95 7.23-22.63 8.9-24.3 11.1-25.45 13.3-26.6 15.7-26.58 18.1-26.55 20.75-25.25L20.75-25.25Q21.15-25.05 21.63-24.65 22.1-24.25 22.45-23.95L22.45-23.95 23.1-23.3Q23.4-23 23.4-22.95L23.4-22.95Q24.2-22.25 24.25-21.15L24.25-21.15Q24.9-18.15 25.1-14.85 25.3-11.55 25.23-8.65 25.15-5.75 25.3-2.5L25.3-2.5Q25.35-1.5 24.65-0.75 23.95 0 22.9 0.05 21.85 0.1 21.1-0.6 20.35-1.3 20.3-2.3L20.3-2.3 20.3-3.05Q18.8-1.5 17.15-0.8L17.15-0.8ZM14.9-5.3L14.9-5.3Q15.65-5.5 16.1-5.7 16.55-5.9 17.23-6.3 17.9-6.7 18.65-7.3 19.4-7.9 20-8.8L20-8.8Q20.1-8.9 20.25-9L20.25-9Q20.25-15.75 19.4-19.85L19.4-19.85Q19.25-20.05 19.07-20.23 18.9-20.4 18.82-20.5 18.75-20.6 18.63-20.68 18.5-20.75 18.35-20.85L18.35-20.85Q15.95-22.15 13.3-20.93 10.65-19.7 8.65-16.35L8.65-16.35Q6.65-12.95 6.68-10.43 6.7-7.9 8.6-6.25L8.6-6.25Q9.75-5.3 11.45-5.05 13.15-4.8 14.9-5.3L14.9-5.3ZM34.2 0L34.2 0Q33.2 0 32.45-0.68 31.7-1.35 31.7-2.5L31.7-2.5Q31.7-6.45 31.65-9.3L31.65-9.3Q31.55-17.8 31.55-24.05L31.55-24.05Q31.55-25.2 32.25-25.85 32.95-26.5 33.95-26.5L33.95-26.5Q35-26.5 35.77-25.83 36.55-25.15 36.55-23.95L36.55-23.95 36.55-22.4Q39.65-26.45 44.7-26.45L44.7-26.45Q49.05-26.45 51.37-23.4 53.7-20.35 53.7-15.2L53.7-15.2Q53.7-9.5 53.55-7.7L53.55-7.7 53.3-4.35 53.15-2.2Q53.05-1.2 52.35-0.6 51.65 0 50.7 0L50.7 0Q49.7 0 48.95-0.68 48.2-1.35 48.2-2.5L48.2-2.5Q48.2-3.3 48.55-8.05L48.55-8.05Q48.8-11.3 48.8-13.15L48.8-13.15Q48.8-17.4 47.6-19.43 46.4-21.45 43.9-21.45L43.9-21.45Q42.1-21.45 40.17-20.35 38.25-19.25 36.55-17.55L36.55-17.55 36.65-10.45 36.7-2.5Q36.7-1.35 35.95-0.68 35.2 0 34.2 0L34.2 0ZM59.8-2.4L59.8-2.4Q59.7-6.15 59.82-13.9 59.95-21.65 59.95-24.05L59.95-24.05Q59.95-25.1 60.67-25.83 61.4-26.55 62.45-26.55 63.5-26.55 64.22-25.83 64.95-25.1 64.95-24.05L64.95-24.05Q64.95-21.65 64.82-13.95 64.7-6.25 64.8-2.5L64.8-2.5Q64.8-1.45 64.09-0.7 63.4 0.05 62.35 0.05 61.3 0.05 60.55-0.65 59.8-1.35 59.8-2.4L59.8-2.4ZM64.45-35.2L64.45-35.2Q65.3-34.35 65.3-33.1 65.3-31.85 64.45-31 63.6-30.15 62.35-30.15 61.1-30.15 60.25-31 59.4-31.85 59.4-33.1 59.4-34.35 60.25-35.2 61.1-36.05 62.37-36.08 63.65-36.1 64.45-35.2L64.45-35.2ZM101.79-2.2L101.79-2.2Q101.74-3.1 101.67-3.88 101.59-4.65 101.57-5.03 101.54-5.4 101.52-5.68 101.49-5.95 101.49-6.3L101.49-6.3 101.49-9.15Q101.49-9.95 101.57-11.98 101.64-14 101.62-15.4 101.59-16.8 101.34-18.05L101.34-18.05Q101.04-19.8 100.29-20.58 99.54-21.35 97.99-21.35L97.99-21.35Q94.54-21.3 91.09-17.15L91.09-17.15Q91.24-15.65 91.24-11.35L91.24-11.35Q91.24-8.2 91.39-2.55L91.39-2.55Q91.44-1.55 90.72-0.8 89.99-0.05 88.97 0 87.94 0.05 87.19-0.68 86.44-1.4 86.39-2.45L86.39-2.45Q86.24-8.1 86.24-11.35L86.24-11.35 86.24-13.85Q86.24-14.1 86.22-14.9 86.19-15.7 86.17-16.07 86.14-16.45 86.07-17.07 85.99-17.7 85.92-18.18 85.84-18.65 85.69-19.1L85.69-19.1Q85.29-20.5 84.59-21.05L84.59-21.05Q83.84-21.65 82.34-21.5L82.34-21.5Q80.69-21.35 79.49-20.6L79.49-20.6Q78.34-19.85 77.14-18.2L77.14-18.2Q76.89-17.9 76.59-17.65L76.59-17.65Q76.79-7.65 76.59-2.4L76.59-2.4Q76.54-1.35 75.79-0.65 75.04 0.05 73.99 0 72.94-0.05 72.24-0.8 71.54-1.55 71.59-2.6L71.59-2.6Q71.69-8.15 71.69-9.73 71.69-11.3 71.57-16.98 71.44-22.65 71.44-24.25L71.44-24.25Q71.44-25 72.17-25.75 72.89-26.5 73.89-26.5 74.89-26.5 75.69-25.88 76.49-25.25 76.44-23.55L76.44-23.55Q78.69-26.2 81.94-26.5L81.94-26.5Q85.39-26.8 87.69-24.95L87.69-24.95Q88.89-24 89.84-22.3L89.84-22.3Q92.94-26.2 97.99-26.5L97.99-26.5Q101.69-26.55 103.94-24.2L103.94-24.2Q105.69-22.15 106.29-18.95L106.29-18.95Q106.54-17.45 106.59-15.68 106.64-13.9 106.57-11.68 106.49-9.45 106.49-9.15L106.49-9.15 106.49-6.4Q106.49-6.15 106.52-5.9 106.54-5.65 106.57-5.33 106.59-5 106.64-4.25 106.69-3.5 106.79-2.6L106.79-2.6Q106.84-1.55 106.17-0.78 105.49 0 104.47 0.08 103.44 0.15 102.67-0.53 101.89-1.2 101.79-2.2L101.79-2.2ZM112.19 10.05L112.19 10.05Q111.14 10.15 110.34 9.47 109.54 8.8 109.44 7.78 109.34 6.75 110.02 5.95 110.69 5.15 111.69 5.05L111.69 5.05Q112.19 5 112.89 4.95 113.59 4.9 113.82 4.88 114.04 4.85 114.39 4.78 114.74 4.7 114.94 4.55L114.94 4.55 115.44 4.25Q116.64 3.65 117.59 0.9L117.59 0.9Q117.89 0.05 118.19-0.3L118.19-0.3Q117.84-0.7 117.64-1.25L117.64-1.25Q116.74-5.1 113.94-12.65L113.94-12.65Q111.44-19.3 110.24-23.3L110.24-23.3Q109.94-24.3 110.44-25.2 110.94-26.1 111.94-26.4 112.94-26.7 113.84-26.2 114.74-25.7 115.04-24.7L115.04-24.7Q115.99-21.5 118.64-14.4L118.64-14.4 120.54-9.2Q124.04-19.9 126.94-25.25L126.94-25.25Q127.44-26.15 128.44-26.45 129.44-26.75 130.34-26.25 131.24-25.75 131.54-24.75 131.84-23.75 131.34-22.85L131.34-22.85Q130.04-20.45 128.64-17 127.24-13.55 126.44-11.2 125.64-8.85 124.34-4.65L124.34-4.65Q124.04-3.65 123.94-3.25L123.94-3.25Q123.69-2.6 123.24-0.65L123.24-0.65Q122.69 1.2 122.34 2.35L122.34 2.35Q120.94 6.25 118.54 8.15L118.54 8.15Q117.84 8.7 117.14 9.08 116.44 9.45 115.67 9.63 114.89 9.8 114.44 9.88 113.99 9.95 113.17 9.98 112.34 10 112.19 10.05L112.19 10.05ZM147.64-0.35L147.64-0.35Q141.04 1.25 137.09-3L137.09-3Q133.94-6.25 133.19-11.35L133.19-11.35Q132.64-15.35 134.14-18.95L134.14-18.95Q135.94-23.55 139.84-25.75L139.84-25.75Q140.64-26.2 141.84-26.4L141.84-26.4Q141.89-26.4 142.54-26.45L142.54-26.45Q142.79-26.5 142.94-26.55L142.94-26.55Q143.69-26.7 144.44-26.4L144.44-26.4Q144.64-26.4 145.39-26.38 146.14-26.35 146.39-26.33 146.64-26.3 147.26-26.23 147.89-26.15 148.29-26.05L148.29-26.05 149.24-25.7Q149.84-25.5 150.39-25.2 150.94-24.9 151.59-24.5L151.59-24.5Q154.84-22.3 156.09-18.32 157.34-14.35 156.74-11.9L156.74-11.9Q156.29-9.2 155.14-6.88 153.99-4.55 151.96-2.75 149.94-0.95 147.64-0.35L147.64-0.35ZM146.09-5.55L146.09-5.55Q148.24-5.85 149.76-7.78 151.29-9.7 151.76-11.85 152.24-14 151.41-16.57 150.59-19.15 148.79-20.3L148.79-20.3Q148.24-20.7 147.89-20.88 147.54-21.05 147.06-21.18 146.59-21.3 146.31-21.3 146.04-21.3 145.14-21.35 144.24-21.4 143.54-21.45L143.54-21.45Q143.39-21.45 143.19-21.5L143.19-21.5Q142.64-21.45 142.59-21.45L142.59-21.45 142.24-21.35Q140.04-20.15 138.86-17.53 137.69-14.9 138.19-12.1L138.19-12.1Q138.74-8.7 140.64-6.95L140.64-6.95Q142.69-5.05 146.09-5.55L146.09-5.55ZM165.09 0L165.09 0Q164.09 0 163.34-0.68 162.59-1.35 162.59-2.5L162.59-2.5Q162.59-6.45 162.54-9.3L162.54-9.3Q162.44-17.8 162.44-24.05L162.44-24.05Q162.44-25.2 163.14-25.85 163.84-26.5 164.84-26.5L164.84-26.5Q165.89-26.5 166.66-25.83 167.44-25.15 167.44-23.95L167.44-23.95 167.44-22.4Q170.54-26.45 175.59-26.45L175.59-26.45Q179.94-26.45 182.26-23.4 184.59-20.35 184.59-15.2L184.59-15.2Q184.59-9.5 184.44-7.7L184.44-7.7 184.19-4.35 184.04-2.2Q183.94-1.2 183.24-0.6 182.54 0 181.59 0L181.59 0Q180.59 0 179.84-0.68 179.09-1.35 179.09-2.5L179.09-2.5Q179.09-3.3 179.44-8.05L179.44-8.05Q179.69-11.3 179.69-13.15L179.69-13.15Q179.69-17.4 178.49-19.43 177.29-21.45 174.79-21.45L174.79-21.45Q172.99-21.45 171.06-20.35 169.14-19.25 167.44-17.55L167.44-17.55 167.54-10.45 167.59-2.5Q167.59-1.35 166.84-0.68 166.09 0 165.09 0L165.09 0Z" opacity="1" transform="matrix(1,0,0,1,0,0)" fill="#000000" class="wordmark-text-0" data-fill-palette-color="primary" id="text-0"></path></svg></g></svg></g><g transform="matrix(1,0,0,1,0,134.84258122002478)"><svg viewBox="0 0 395.52 41.17707602339181" height="41.17707602339181" width="395.52"><g transform="matrix(1,0,0,1,20,3.2)"><svg width="355.52" viewBox="0.5 -36 470.22 46" height="34.777076023391814" data-palette-color="#ffffff"><path d="M20.25-30.75L12.75-12.25 28.25-12.25 20.75-30.75 20.25-30.75ZM14.75-35L26.25-35 40.5 0 33.3 0 30-8.5 11-8.5 7.7 0 0.5 0 14.75-35ZM72-15.75L72 0 65 0 65-15.75Q65-19.35 63.2-20.93 61.4-22.5 58-22.5L58-22.5 51.5-22.5 51.5 0 44.5 0 44.5-26 58-26Q65.15-26 68.57-23.43 72-20.85 72-15.75L72-15.75ZM86-25.5L86 0 79 0 79-25.5 86-25.5ZM86.25-32.25L86.25-32.25Q86.25-30.75 85.22-29.63 84.2-28.5 82.5-28.5L82.5-28.5Q80.8-28.5 79.77-29.63 78.75-30.75 78.75-32.25L78.75-32.25Q78.75-33.75 79.77-34.88 80.8-36 82.5-36L82.5-36Q84.15-36 85.2-34.88 86.25-33.75 86.25-32.25ZM93.24 0L93.24-26 119.24-26Q126.39-26 129.82-23.43 133.24-20.85 133.24-15.75L133.24-15.75 133.24 0 126.24 0 126.24-15.75Q126.24-19.35 124.44-20.93 122.64-22.5 119.24-22.5L119.24-22.5 116.74-22.5 116.74 0 109.74 0 109.74-22.5 100.24-22.5 100.24 0 93.24 0ZM154.99-2.5L154.99-2.5Q157.44-2.5 159.56-3.35 161.69-4.2 163.74-5.75L163.74-5.75 165.74-2.75Q164.79-1.9 163.52-1.2 162.24-0.5 160.77-0.03 159.29 0.45 157.69 0.73 156.09 1 154.49 1L154.49 1Q150.94 1 148.02 0.08 145.09-0.85 143.04-2.63 140.99-4.4 139.87-7 138.74-9.6 138.74-13L138.74-13Q138.74-16.35 139.81-18.98 140.89-21.6 142.81-23.38 144.74-25.15 147.39-26.08 150.04-27 153.24-27L153.24-27Q156.24-27 158.89-26.1 161.54-25.2 163.49-23.48 165.44-21.75 166.59-19.3 167.74-16.85 167.74-13.75L167.74-13.75 167.74-10.25 146.39-10.25Q146.99-6.1 149.27-4.3 151.54-2.5 154.99-2.5ZM153.24-23.75L153.24-23.75Q151.79-23.75 150.54-23.2 149.29-22.65 148.37-21.45 147.44-20.25 146.87-18.35 146.29-16.45 146.24-13.75L146.24-13.75 160.24-13.75Q160.24-16.35 159.64-18.25 159.04-20.15 158.06-21.38 157.09-22.6 155.81-23.18 154.54-23.75 153.24-23.75ZM204.99-2.25L204.99-2.25Q206.59-2.25 207.99-2.85 209.39-3.45 210.44-4.73 211.49-6 212.11-8.05 212.74-10.1 212.74-13L212.74-13Q212.74-15.9 212.11-17.95 211.49-20 210.44-21.28 209.39-22.55 207.99-23.15 206.59-23.75 204.99-23.75L204.99-23.75Q203.39-23.75 201.99-23.15 200.59-22.55 199.54-21.28 198.49-20 197.86-17.95 197.24-15.9 197.24-13L197.24-13Q197.24-10.1 197.86-8.05 198.49-6 199.54-4.73 200.59-3.45 201.99-2.85 203.39-2.25 204.99-2.25ZM204.99-27L204.99-27Q208.34-27 211.16-26.08 213.99-25.15 215.99-23.38 217.99-21.6 219.11-18.98 220.24-16.35 220.24-13L220.24-13Q220.24-9.6 219.11-7 217.99-4.4 215.99-2.63 213.99-0.85 211.16 0.08 208.34 1 204.99 1L204.99 1Q201.59 1 198.79 0.08 195.99-0.85 193.99-2.63 191.99-4.4 190.86-7 189.74-9.6 189.74-13L189.74-13Q189.74-16.35 190.86-18.98 191.99-21.6 193.99-23.38 195.99-25.15 198.79-26.08 201.59-27 204.99-27ZM253.48-15.75L253.48 0 246.48 0 246.48-15.75Q246.48-19.35 244.68-20.93 242.88-22.5 239.48-22.5L239.48-22.5 232.98-22.5 232.98 0 225.98 0 225.98-26 239.48-26Q246.63-26 250.06-23.43 253.48-20.85 253.48-15.75L253.48-15.75ZM281.73-18.5L281.73-14 258.73-14 258.73-18.5 281.73-18.5ZM289.48-9.5L289.48-22.5 284.73-22.5 284.73-26 289.48-26 289.48-34 296.48-34 296.48-26 304.23-26 304.23-22.5 296.48-22.5 296.48-9.5Q296.48-7.6 296.9-6.28 297.33-4.95 298.05-4.13 298.78-3.3 299.73-2.9 300.68-2.5 301.73-2.5L301.73-2.5Q303.23-2.5 304.63-2.98 306.03-3.45 306.98-4L306.98-4 308.48-0.75Q306.98 0 305.05 0.5 303.13 1 301.23 1L301.23 1Q295.58 1 292.53-1.8 289.48-4.6 289.48-9.5L289.48-9.5ZM339.98-15.75L339.98 0 332.98 0 332.98-15.75Q332.98-19.35 331.18-20.93 329.38-22.5 325.98-22.5L325.98-22.5 319.48-22.5 319.48 0 312.48 0 312.48-35 319.48-35 319.48-26 325.98-26Q333.13-26 336.55-23.43 339.98-20.85 339.98-15.75L339.98-15.75ZM361.72-2.5L361.72-2.5Q364.17-2.5 366.3-3.35 368.42-4.2 370.47-5.75L370.47-5.75 372.47-2.75Q371.52-1.9 370.25-1.2 368.97-0.5 367.5-0.03 366.02 0.45 364.42 0.73 362.82 1 361.22 1L361.22 1Q357.67 1 354.75 0.08 351.82-0.85 349.77-2.63 347.72-4.4 346.6-7 345.47-9.6 345.47-13L345.47-13Q345.47-16.35 346.55-18.98 347.62-21.6 349.55-23.38 351.47-25.15 354.12-26.08 356.77-27 359.97-27L359.97-27Q362.97-27 365.62-26.1 368.27-25.2 370.22-23.48 372.17-21.75 373.32-19.3 374.47-16.85 374.47-13.75L374.47-13.75 374.47-10.25 353.12-10.25Q353.72-6.1 356-4.3 358.27-2.5 361.72-2.5ZM359.97-23.75L359.97-23.75Q358.52-23.75 357.27-23.2 356.02-22.65 355.1-21.45 354.17-20.25 353.6-18.35 353.02-16.45 352.97-13.75L352.97-13.75 366.97-13.75Q366.97-16.35 366.37-18.25 365.77-20.15 364.8-21.38 363.82-22.6 362.55-23.18 361.27-23.75 359.97-23.75ZM401.72-18.5L401.72-14 378.72-14 378.72-18.5 401.72-18.5ZM427.47-22.5L421.22-22.5Q417.62-22.5 415.54-20.28 413.47-18.05 413.47-13.5L413.47-13.5Q413.47-8.95 415.54-6.73 417.62-4.5 421.22-4.5L421.22-4.5 427.47-4.5 427.47-22.5ZM434.47-26L434.47-0.5Q434.47 1.85 433.57 3.78 432.67 5.7 430.89 7.1 429.12 8.5 426.44 9.25 423.77 10 420.22 10L420.22 10Q419.02 10 417.64 9.83 416.27 9.65 414.87 9.28 413.47 8.9 412.14 8.33 410.82 7.75 409.72 7L409.72 7 411.47 4Q413.17 5.15 415.32 5.83 417.47 6.5 419.72 6.5L419.72 6.5Q423.47 6.5 425.47 4.8 427.47 3.1 427.47-0.5L427.47-0.5 427.47-1 421.22-1Q417.77-1 414.94-1.9 412.12-2.8 410.12-4.45 408.12-6.1 407.04-8.4 405.97-10.7 405.97-13.5L405.97-13.5Q405.97-16.3 407.04-18.6 408.12-20.9 410.12-22.55 412.12-24.2 414.94-25.1 417.77-26 421.22-26L421.22-26 434.47-26ZM455.47-2.25L455.47-2.25Q457.07-2.25 458.47-2.85 459.87-3.45 460.92-4.73 461.97-6 462.59-8.05 463.22-10.1 463.22-13L463.22-13Q463.22-15.9 462.59-17.95 461.97-20 460.92-21.28 459.87-22.55 458.47-23.15 457.07-23.75 455.47-23.75L455.47-23.75Q453.87-23.75 452.47-23.15 451.07-22.55 450.02-21.28 448.97-20 448.34-17.95 447.72-15.9 447.72-13L447.72-13Q447.72-10.1 448.34-8.05 448.97-6 450.02-4.73 451.07-3.45 452.47-2.85 453.87-2.25 455.47-2.25ZM455.47-27L455.47-27Q458.82-27 461.64-26.08 464.47-25.15 466.47-23.38 468.47-21.6 469.59-18.98 470.72-16.35 470.72-13L470.72-13Q470.72-9.6 469.59-7 468.47-4.4 466.47-2.63 464.47-0.85 461.64 0.08 458.82 1 455.47 1L455.47 1Q452.07 1 449.27 0.08 446.47-0.85 444.47-2.63 442.47-4.4 441.34-7 440.22-9.6 440.22-13L440.22-13Q440.22-16.35 441.34-18.98 442.47-21.6 444.47-23.38 446.47-25.15 449.27-26.08 452.07-27 455.47-27Z" opacity="1" transform="matrix(1,0,0,1,0,0)" fill="#ffffff" class="slogan-text-1" data-fill-palette-color="quaternary" id="text-1"></path></svg></g></svg></g></svg></g></svg></g><g></g></svg></g><defs></defs></svg><rect width="395.52" height="176.0196572434166" fill="none" stroke="none" visibility="hidden"></rect></g></svg></g></svg>